<svg width="30" height="30" viewBox="0 0 30 30" fill="none" xmlns="http://www.w3.org/2000/svg">
<path d="M10 13.75V20M10 10V10.0125M15 20V13.75M20 20V16.25C20 15.587 19.7366 14.9511 19.2678 14.4822C18.7989 14.0134 18.163 13.75 17.5 13.75C16.837 13.75 16.2011 14.0134 15.7322 14.4822C15.2634 14.9511 15 15.587 15 16.25M5 7.5C5 6.83696 5.26339 6.20107 5.73223 5.73223C6.20107 5.26339 6.83696 5 7.5 5H22.5C23.163 5 23.7989 5.26339 24.2678 5.73223C24.7366 6.20107 25 6.83696 25 7.5V22.5C25 23.163 24.7366 23.7989 24.2678 24.2678C23.7989 24.7366 23.163 25 22.5 25H7.5C6.83696 25 6.20107 24.7366 5.73223 24.2678C5.26339 23.7989 5 23.163 5 22.5V7.5Z" stroke="#D4B5A2" stroke-width="2" stroke-linecap="round" stroke-linejoin="round"/>
</svg>
