<svg width="217" height="90" viewBox="0 0 217 90" fill="none" xmlns="http://www.w3.org/2000/svg">
<g clip-path="url(#clip0_120_291)">
<path d="M93.0222 44.4345C88.9698 44.4345 84.4436 43.483 81.2721 37.5344L79.7715 41.8612C83.4107 44.9073 87.451 46.5231 93.1498 46.5231C94.9239 46.5231 96.6615 46.2478 98.2715 45.7152L96.9167 43.8301C95.7319 44.219 94.4196 44.4285 93.0222 44.4285" fill="white"/>
<path d="M137.167 29.3776H132.744V42.7947C129.95 44.0575 126.809 45.1466 124.184 45.1466C114.342 45.1466 107.002 38.3782 107.002 27.4267C107.002 18.6535 112.246 8.89886 123.248 8.89886C127.914 8.89886 131.985 9.87433 135.6 15.38L136.991 11.7116C132.447 8.3842 128.024 7.12747 122.319 7.12747C111.152 7.12747 103.843 14.5961 102.349 23.86C95.872 19.0425 85.2641 18.1508 85.2641 9.12627C85.2641 4.12328 89.5899 2.02873 93.8428 2.02873C96.7226 2.02873 100.167 2.43567 102.774 7.03172L104.481 3.31538C102.148 1.21484 97.7554 0 94.0493 0C88.1439 0 81.2725 3.78217 81.2725 11.2268C81.2725 16.6308 84.5046 20.2992 89.0674 22.8546C93.0347 25.0748 97.9923 26.535 100.957 30.1317C102.099 31.5141 102.895 33.1359 103.612 34.7576C105.155 38.2585 107.343 41.2448 110.672 43.3274C114.257 45.5715 118.534 46.6906 122.774 46.6906C127.015 46.6906 133.431 45.2005 137.216 43.6505L137.161 29.3716L137.167 29.3776Z" fill="white"/>
<path d="M1.17868 84.4106C2.19937 86.4572 3.81547 88.0132 6.23353 88.0132C8.1534 88.0132 9.73912 86.9121 9.73912 84.8953C9.73912 79.8265 0.619733 81.0772 0.619733 74.1113C0.619733 70.8737 3.56637 68.7373 6.67097 68.7373C8.46933 68.7373 10.5472 69.3178 11.9445 70.5087L10.6444 73.2915C9.83632 71.7954 8.40857 70.6344 6.64059 70.6344C5.09133 70.6344 4.06456 71.7954 4.06456 73.2915C4.06456 78.3603 13.1536 76.924 13.1536 83.86C13.1536 87.5584 9.89708 90 6.30036 90C3.79116 90 1.8956 89.2041 0.00610352 87.6182L1.18476 84.4106H1.17868Z" fill="white"/>
<path d="M21.4645 89.629V70.8737H14.3926L14.8604 69.0425H32.601L32.6313 70.8737H25.3407C25.3407 77.1334 25.3103 83.3692 25.3103 89.629H21.4645Z" fill="white"/>
<path d="M46.3316 89.6291C44.4421 86.5112 42.5466 83.4292 40.6875 80.2814C40.2196 80.2814 39.7579 80.2814 39.2901 80.2515L39.849 79.3957C42.6073 79.3957 44.3146 77.6243 44.3146 74.9373C44.3146 72.2503 42.4554 70.8738 39.9402 70.8738C39.5696 70.8738 39.199 70.8738 38.8223 70.9038V89.6291H35.0372L35.0068 69.0366H40.8394C44.3753 69.0366 48.0024 70.808 48.0024 74.7218C48.0024 77.2592 46.5747 78.9349 44.187 79.7009C46.2648 83.0941 48.6221 86.3017 50.7607 89.6291H46.3256H46.3316Z" fill="white"/>
<path d="M61.314 74.4764L58.6468 80.8917H64.0419L61.314 74.4764ZM67.6082 89.629C66.8002 87.3968 65.8706 85.2304 64.9411 83.0281H57.778L54.8921 89.629H52.626L61.6846 69.0066H62.9848C64.0055 71.9689 65.3725 74.7816 66.6422 77.6242C68.3798 81.6577 70.1782 85.6613 71.9766 89.629H67.6022H67.6082Z" fill="white"/>
<path d="M77.4997 89.629V70.8737H70.4277L70.8956 69.0425H88.6361L88.6665 70.8737H81.3759C81.3759 77.1334 81.3455 83.3692 81.3455 89.629H77.4997Z" fill="white"/>
<path d="M95.7993 74.4764L93.1322 80.8917H98.5273L95.7993 74.4764ZM102.094 89.629C101.286 87.3968 100.356 85.2304 99.4264 83.0281H92.2634L89.3775 89.629H87.1113L96.1699 69.0066H97.4701C98.4908 71.9689 99.8578 74.7816 101.128 77.6242C102.865 81.6577 104.664 85.6613 106.462 89.629H102.088H102.094Z" fill="white"/>
<path d="M124.986 80.7122H127.343L127.374 88.3185C125.357 89.1443 121.851 89.9402 119.682 89.9402C114.287 89.9402 108.643 86.4872 108.643 79.6769C108.643 73.9019 112.738 68.863 119.439 68.863C122.477 68.863 124.834 69.5333 127.252 71.3047L126.505 73.2616C124.585 70.3292 122.41 69.8086 119.931 69.8086C114.068 69.8086 111.28 75.0031 111.28 79.6769C111.28 85.5118 115.186 89.1144 120.429 89.1144C121.827 89.1144 123.498 88.5339 124.986 87.8636V80.7122Z" fill="white"/>
<path d="M132.021 89.6289C132.021 87.8276 132.082 72.2441 132.021 69.0664H134.379L134.409 88.7732C134.409 88.7732 142.939 88.8629 144.458 88.5876L144.088 89.623H132.021V89.6289Z" fill="white"/>
<path d="M163.748 79.4914C163.748 74.8176 161.238 69.8086 155.376 69.8086C149.513 69.8086 146.943 75.0031 146.943 79.6769C146.943 85.0869 150.6 89.0246 155.376 89.0545C160.181 89.0845 163.748 84.9013 163.748 79.4914ZM155.436 89.9103C149.233 89.9103 144.3 86.3376 144.3 79.6769C144.3 73.9019 148.705 68.863 155.406 68.863C162.107 68.863 166.384 73.7224 166.384 79.4914C166.384 86.1222 161.609 89.9103 155.436 89.9103Z" fill="white"/>
<path d="M171.75 88.7134C175.996 89.0785 179.909 88.7134 179.909 84.0994C179.909 80.802 177.771 79.2102 174.605 79.2102C173.645 79.2102 172.685 79.2401 171.75 79.2401V88.7134ZM171.75 78.6656C176.525 78.6656 178.542 77.5046 178.542 74.1114C178.542 69.7428 173.919 69.8026 171.75 69.8026V78.6596V78.6656ZM169.453 89.635C169.453 87.8337 169.514 72.2502 169.453 69.0725H175.286C178.943 69.0725 181.021 71.3047 181.021 73.7763C181.021 75.823 179.411 78.2048 176.677 78.5698C179.873 78.7194 182.509 80.0958 182.509 83.7045C182.509 87.7978 178.943 89.6291 175.188 89.6291H169.453V89.635Z" fill="white"/>
<path d="M195.316 81.5379C193.669 77.5044 191.561 72.3697 191.561 72.3697V72.0047L187.715 81.5379H195.316ZM198.481 89.6348C197.77 87.648 196.683 84.8712 195.693 82.4236H187.381L184.344 89.6348H183.444L192.193 68.7671H192.473C192.473 68.7671 192.904 70.1136 193.25 70.9335C195.948 77.5642 199.891 86.7264 201.161 89.6288H198.493L198.481 89.6348Z" fill="white"/>
<path d="M204.558 89.6289C204.558 87.8276 204.618 72.2441 204.558 69.0664H206.915L206.945 88.7732C206.945 88.7732 215.475 88.8629 216.994 88.5876L216.624 89.623H204.558V89.6289Z" fill="white"/>
</g>
<defs>
<clipPath id="clip0_120_291">
<rect width="217" height="90" fill="white"/>
</clipPath>
</defs>
</svg>
