<svg width="30" height="31" viewBox="0 0 30 31" fill="none" xmlns="http://www.w3.org/2000/svg">
<path d="M11.25 14.25C11.25 15.2446 11.6451 16.1984 12.3483 16.9017C13.0516 17.6049 14.0054 18 15 18C15.9946 18 16.9484 17.6049 17.6517 16.9017C18.3549 16.1984 18.75 15.2446 18.75 14.25C18.75 13.2554 18.3549 12.3016 17.6517 11.5983C16.9484 10.8951 15.9946 10.5 15 10.5C14.0054 10.5 13.0516 10.8951 12.3483 11.5983C11.6451 12.3016 11.25 13.2554 11.25 14.25Z" stroke="white" stroke-width="2" stroke-linecap="round" stroke-linejoin="round"/>
<path d="M22.0713 21.3209L16.7675 26.6246C16.2987 27.0929 15.6632 27.356 15.0006 27.356C14.338 27.356 13.7025 27.0929 13.2338 26.6246L7.92875 21.3209C6.53028 19.9223 5.57792 18.1405 5.19211 16.2007C4.8063 14.2609 5.00437 12.2503 5.76126 10.423C6.51815 8.59582 7.79988 7.03406 9.44436 5.93527C11.0888 4.83648 13.0222 4.25 15 4.25C16.9778 4.25 18.9112 4.83648 20.5557 5.93527C22.2001 7.03406 23.4819 8.59582 24.2388 10.423C24.9956 12.2503 25.1937 14.2609 24.8079 16.2007C24.4221 18.1405 23.4697 19.9223 22.0713 21.3209Z" stroke="white" stroke-width="2" stroke-linecap="round" stroke-linejoin="round"/>
</svg>
