<svg width="196" height="82" viewBox="0 0 196 82" fill="none" xmlns="http://www.w3.org/2000/svg">
<g clip-path="url(#clip0_120_47)">
<path d="M84.0204 40.4847C80.3602 40.4847 76.272 39.6178 73.4074 34.198L72.052 38.1401C75.3391 40.9155 78.9883 42.3876 84.1357 42.3876C85.738 42.3876 87.3075 42.1368 88.7617 41.6516L87.538 39.934C86.4679 40.2884 85.2826 40.4793 84.0204 40.4793" fill="#24385B"/>
<path d="M123.893 26.7663H119.898V38.9908C117.374 40.1412 114.537 41.1336 112.166 41.1336C103.276 41.1336 96.6474 34.9668 96.6474 24.9888C96.6474 16.9954 101.383 8.10785 111.321 8.10785C115.536 8.10785 119.212 8.99661 122.477 14.0129L123.734 10.6705C119.629 7.63894 115.634 6.49392 110.482 6.49392C100.395 6.49392 93.7938 13.2986 92.4439 21.7391C86.5941 17.3498 77.0128 16.5374 77.0128 8.31505C77.0128 3.75677 80.92 1.84839 84.7613 1.84839C87.3624 1.84839 90.4739 2.21916 92.828 6.40668L94.37 3.02068C92.2628 1.10686 88.2953 0 84.9479 0C79.6139 0 73.4075 3.44597 73.4075 10.2289C73.4075 15.1525 76.3269 18.4948 80.448 20.8231C84.0314 22.8459 88.5093 24.1763 91.1872 27.4533C92.2189 28.7128 92.9378 30.1904 93.5853 31.6681C94.9792 34.8578 96.9547 37.5786 99.9619 39.476C103.2 41.5207 107.063 42.5403 110.893 42.5403C114.723 42.5403 120.518 41.1827 123.937 39.7705L123.888 26.7608L123.893 26.7663Z" fill="#24385B"/>
<path d="M1.06496 76.9073C1.98688 78.772 3.44657 80.1897 5.63063 80.1897C7.36471 80.1897 8.79697 79.1864 8.79697 77.3489C8.79697 72.7307 0.560105 73.8702 0.560105 67.5235C0.560105 64.5737 3.22158 62.6272 6.02574 62.6272C7.65006 62.6272 9.52682 63.1561 10.789 64.2411L9.61462 66.7765C8.88477 65.4134 7.59519 64.3556 5.9983 64.3556C4.59897 64.3556 3.67156 65.4134 3.67156 66.7765C3.67156 71.3948 11.881 70.0862 11.881 76.4056C11.881 79.7753 8.93964 81.9999 5.69099 81.9999C3.42462 81.9999 1.7125 81.2747 0.00585938 79.8298L1.07045 76.9073H1.06496Z" fill="#24385B"/>
<path d="M19.3875 81.6618V64.5737H13L13.4225 62.9053H29.4463L29.4737 64.5737H22.8886C22.8886 70.277 22.8612 75.9585 22.8612 81.6618H19.3875Z" fill="#24385B"/>
<path d="M41.848 81.6619C40.1414 78.8212 38.4292 76.0131 36.75 73.1451C36.3275 73.1451 35.9104 73.1451 35.4879 73.1179L35.9927 72.3382C38.4841 72.3382 40.0261 70.7242 40.0261 68.2761C40.0261 65.8279 38.3469 64.5738 36.0751 64.5738C35.7403 64.5738 35.4056 64.5738 35.0653 64.6011V81.6619H31.6466L31.6191 62.8999H36.8872C40.081 62.8999 43.3571 64.5138 43.3571 68.0798C43.3571 70.3916 42.0675 71.9183 39.9109 72.6162C41.7876 75.7078 43.9168 78.6303 45.8484 81.6619H41.8425H41.848Z" fill="#24385B"/>
<path d="M55.3807 67.8561L52.9716 73.7012H57.8446L55.3807 67.8561ZM61.0658 81.6618C60.336 79.6281 59.4964 77.6543 58.6568 75.6477H52.1869L49.5803 81.6618H47.5334L55.7154 62.8726H56.8898C57.8117 65.5715 59.0464 68.1342 60.1933 70.7241C61.7627 74.3991 63.3871 78.0468 65.0114 81.6618H61.0603H61.0658Z" fill="#24385B"/>
<path d="M69.9999 81.6618V64.5737H63.6123L64.0349 62.9053H80.0586L80.086 64.5737H73.5009C73.5009 70.277 73.4735 75.9585 73.4735 81.6618H69.9999Z" fill="#24385B"/>
<path d="M86.5279 67.8561L84.1189 73.7012H88.9918L86.5279 67.8561ZM92.213 81.6618C91.4832 79.6281 90.6436 77.6543 89.804 75.6477H83.3341L80.7275 81.6618H78.6807L86.8626 62.8726H88.037C88.9589 65.5715 90.1936 68.1342 91.3405 70.7241C92.91 74.3991 94.5343 78.0468 96.1586 81.6618H92.2076H92.213Z" fill="#24385B"/>
<path d="M112.89 73.5376H115.02L115.047 80.4677C113.225 81.2202 110.059 81.9454 108.1 81.9454C103.227 81.9454 98.1289 78.7993 98.1289 72.5944C98.1289 67.3327 101.828 62.7417 107.88 62.7417C110.624 62.7417 112.753 63.3524 114.937 64.9663L114.262 66.7493C112.528 64.0776 110.564 63.6032 108.325 63.6032C103.029 63.6032 100.511 68.336 100.511 72.5944C100.511 77.9105 104.039 81.1929 108.775 81.1929C110.037 81.1929 111.546 80.664 112.89 80.0534V73.5376Z" fill="#24385B"/>
<path d="M119.245 81.662C119.245 80.0208 119.3 65.8225 119.245 62.9272H121.374L121.402 80.8823C121.402 80.8823 129.106 80.9641 130.478 80.7133L130.143 81.6565H119.245V81.662Z" fill="#24385B"/>
<path d="M147.902 72.4253C147.902 68.1669 145.635 63.6032 140.34 63.6032C135.044 63.6032 132.723 68.336 132.723 72.5943C132.723 77.5234 136.027 81.1111 140.34 81.1384C144.68 81.1657 147.902 77.3544 147.902 72.4253ZM140.395 81.9181C134.792 81.9181 130.336 78.663 130.336 72.5943C130.336 67.3327 134.314 62.7417 140.367 62.7417C146.42 62.7417 150.283 67.1691 150.283 72.4253C150.283 78.4667 145.97 81.9181 140.395 81.9181Z" fill="#24385B"/>
<path d="M155.128 80.8277C158.964 81.1603 162.498 80.8277 162.498 76.6238C162.498 73.6195 160.566 72.1691 157.707 72.1691C156.84 72.1691 155.973 72.1964 155.128 72.1964V80.8277ZM155.128 71.673C159.441 71.673 161.263 70.6152 161.263 67.5236C161.263 63.5433 157.087 63.5978 155.128 63.5978V71.6675V71.673ZM153.054 81.6674C153.054 80.0262 153.109 65.8279 153.054 62.9326H158.322C161.625 62.9326 163.502 64.9664 163.502 67.2183C163.502 69.083 162.048 71.2531 159.578 71.5857C162.465 71.722 164.847 72.9761 164.847 76.264C164.847 79.9935 161.625 81.6619 158.234 81.6619H153.054V81.6674Z" fill="#24385B"/>
<path d="M176.415 74.2902C174.928 70.6152 173.024 65.9369 173.024 65.9369V65.6043L169.55 74.2902H176.415ZM179.274 81.6674C178.632 79.8571 177.65 77.3272 176.755 75.0971H169.248L166.505 81.6674H165.692L173.594 62.6545H173.847C173.847 62.6545 174.237 63.8813 174.549 64.6283C176.986 70.6697 180.547 79.0175 181.694 81.6619H179.285L179.274 81.6674Z" fill="#24385B"/>
<path d="M184.762 81.662C184.762 80.0208 184.817 65.8225 184.762 62.9272H186.891L186.918 80.8823C186.918 80.8823 194.623 80.9641 195.995 80.7133L195.66 81.6565H184.762V81.662Z" fill="#24385B"/>
</g>
<defs>
<clipPath id="clip0_120_47">
<rect width="196" height="82" fill="white"/>
</clipPath>
</defs>
</svg>
