<svg width="22" height="22" viewBox="0 0 22 22" fill="none" xmlns="http://www.w3.org/2000/svg">
<path d="M20.1663 20.1666L18.333 18.3333M10.5413 19.2499C11.6849 19.2499 12.8173 19.0247 13.8739 18.587C14.9304 18.1494 15.8904 17.508 16.6991 16.6993C17.5077 15.8907 18.1492 14.9307 18.5868 13.8741C19.0244 12.8176 19.2497 11.6852 19.2497 10.5416C19.2497 9.39799 19.0244 8.26559 18.5868 7.20905C18.1492 6.15251 17.5077 5.19251 16.6991 4.38386C15.8904 3.57522 14.9304 2.93377 13.8739 2.49613C12.8173 2.0585 11.6849 1.83325 10.5413 1.83325C8.23175 1.83325 6.01675 2.75073 4.38362 4.38386C2.75049 6.01699 1.83301 8.23199 1.83301 10.5416C1.83301 12.8512 2.75049 15.0662 4.38362 16.6993C6.01675 18.3324 8.23175 19.2499 10.5413 19.2499Z" stroke="#D4B5A2" stroke-width="1.5" stroke-linecap="round" stroke-linejoin="round"/>
</svg>
