<svg width="1440" height="1981" viewBox="0 0 1440 1981" fill="none" xmlns="http://www.w3.org/2000/svg">
<g style="mix-blend-mode:plus-darker" opacity="0.1">
<path d="M2566.45 1100.07H2340.02V1792.93C2196.95 1858.14 2036.15 1914.38 1901.78 1914.38C1397.92 1914.38 1022.2 1564.86 1022.2 999.322C1022.2 546.272 1290.62 42.5399 1853.89 42.5399C2092.76 42.5399 2301.14 92.9131 2486.21 377.228L2557.43 187.788C2324.78 15.9626 2098.35 -48.9355 1806.3 -48.9355C1234.63 -48.9355 860.466 336.744 783.953 815.135C452.398 566.36 -90.6554 520.313 -90.6554 54.2833C-90.6554 -204.073 130.796 -312.236 348.515 -312.236C495.942 -312.236 672.295 -291.221 805.725 -53.8801L893.124 -245.793C773.689 -354.265 548.817 -417 359.09 -417C56.7717 -417 -295 -221.688 -295 162.756C-295 441.817 -129.533 631.258 104.048 763.217C307.149 877.87 560.947 953.276 712.728 1139.01C771.201 1210.4 811.946 1294.14 848.647 1377.89C927.648 1558.68 1039.62 1712.89 1210.06 1820.44C1393.57 1936.33 1612.53 1994.12 1829.63 1994.12C2046.72 1994.12 2375.17 1917.17 2568.94 1837.12L2566.14 1099.76L2566.45 1100.07Z" fill="#D4B5A2"/>
</g>
</svg>
