<svg width="34" height="18" viewBox="0 0 34 18" fill="none" xmlns="http://www.w3.org/2000/svg">
<path d="M32.8625 8.01856L25.1699 0.324601C24.718 -0.112956 23.9995 -0.107554 23.553 0.337205C23.1082 0.780165 23.101 1.49861 23.5367 1.95238L30.419 8.83458L23.5367 15.7168C23.101 16.1705 23.1082 16.889 23.553 17.332C23.9995 17.7767 24.718 17.7821 25.1699 17.3446L32.8625 9.6506C33.0804 9.43453 33.201 9.14101 33.201 8.83493C33.201 8.52884 33.0804 8.2353 32.8625 8.01925V8.01856Z" fill="#D4B5A2"/>
<path d="M31.7517 7.68204H1.753C1.11558 7.68204 0.600586 8.19882 0.600586 8.83445C0.600586 9.47007 1.11558 9.98686 1.753 9.98686H31.7517C32.3891 9.98686 32.9041 9.47007 32.9041 8.83445C32.9041 8.19882 32.3891 7.68204 31.7517 7.68204Z" fill="#D4B5A2"/>
</svg>
