<svg width="1440" height="1701" viewBox="0 0 1440 1701" fill="none" xmlns="http://www.w3.org/2000/svg">
<g clip-path="url(#clip0_161_419)">
<g opacity="0.15">
<g style="mix-blend-mode:plus-darker" opacity="0.3">
<path d="M2633.08 891.069H2406.65V1583.93C2263.58 1649.14 2102.78 1705.38 1968.41 1705.38C1464.55 1705.38 1088.83 1355.86 1088.83 790.322C1088.83 337.272 1357.25 -166.46 1920.52 -166.46C2159.38 -166.46 2367.77 -116.087 2552.83 168.228L2624.06 -21.2122C2391.41 -193.037 2164.98 -257.935 1872.93 -257.935C1301.26 -257.935 927.095 127.744 850.582 606.135C519.027 357.36 -24.0265 311.313 -24.0265 -154.717C-24.0265 -413.073 197.425 -521.236 415.144 -521.236C562.571 -521.236 738.924 -500.221 872.354 -262.88L959.753 -454.793C840.318 -563.265 615.446 -626 425.719 -626C123.401 -626 -228.371 -430.688 -228.371 -46.2443C-228.371 232.817 -62.9046 422.258 170.677 554.217C373.778 668.87 627.576 744.276 779.357 930.007C837.83 1001.4 878.574 1085.14 915.276 1168.89C994.277 1349.68 1106.25 1503.89 1276.69 1611.44C1460.2 1727.33 1679.16 1785.12 1896.26 1785.12C2113.35 1785.12 2441.8 1708.17 2635.57 1628.12L2632.77 890.76L2633.08 891.069Z" fill="#566889"/>
</g>
</g>
</g>
<defs>
<clipPath id="clip0_161_419">
<rect width="2897" height="1701" fill="white" transform="translate(-261)"/>
</clipPath>
</defs>
</svg>
