<svg width="27" height="27" viewBox="0 0 27 27" fill="none" xmlns="http://www.w3.org/2000/svg">
<path d="M18.7976 0.00543429L18.7844 0H18.7703H7.31824H7.30409L7.29091 0.00543429C6.94606 0.147794 6.91729 0.451145 6.91748 0.724316C6.91931 5.71544 6.9195 10.7067 6.91979 15.6979C6.91989 18.125 6.91998 20.5522 6.92037 22.9794C6.92046 23.0827 6.92239 23.1925 6.94394 23.2987C6.99157 23.5342 7.16525 23.6791 7.40869 23.6865C7.41513 23.6867 7.42168 23.6868 7.42812 23.6868C7.66685 23.6868 7.8411 23.5513 7.89412 23.3244C7.92654 23.186 7.92933 23.04 7.92933 22.9024C7.93068 16.4299 7.93068 9.95731 7.93068 3.48465V1.31161V1.03494H18.1578V1.33713V3.4798C18.1578 9.95391 18.1578 16.4281 18.1592 22.9022C18.1592 23.0398 18.1619 23.1858 18.1944 23.3243C18.2475 23.5511 18.4217 23.6866 18.6604 23.6866C18.6668 23.6866 18.6734 23.6865 18.6799 23.6863C18.9256 23.6788 19.0992 23.5336 19.1442 23.2977C19.168 23.1729 19.168 23.0427 19.168 22.9279C19.1689 20.0018 19.1689 17.0754 19.1689 14.1492V12.8865L19.1688 10.4999C19.1686 7.29576 19.1685 3.98267 19.171 0.724025C19.1712 0.451145 19.1426 0.147794 18.7976 0.00543429Z" fill="white"/>
<path d="M26.0774 5.55313C25.8972 5.26589 25.6198 5.22717 25.3721 5.22717H25.3651C24.4908 5.23028 23.6008 5.23067 22.7694 5.23067H22.2135H21.6578C21.3062 5.23067 20.9546 5.23076 20.603 5.23105C20.4924 5.23105 20.3978 5.23843 20.3138 5.25357C20.051 5.30092 19.9052 5.47802 19.9034 5.75255C19.9015 6.00748 20.0721 6.19661 20.3378 6.23427C20.4398 6.24882 20.5429 6.24902 20.6428 6.24921H20.6507C21.5809 6.2497 22.5107 6.24979 23.4407 6.24979H24.1356H24.8304H25.0688V23.5921C25.0466 23.5905 25.0246 23.5892 25.0027 23.5878C24.8963 23.581 24.7959 23.5745 24.7001 23.553C24.5813 23.5267 24.4938 23.4853 24.4597 23.439C24.1033 22.9553 23.5671 22.6778 22.9886 22.6778C22.4117 22.6778 21.8766 22.9541 21.5204 23.4358C21.4771 23.4944 21.372 23.5486 21.2999 23.5494C20.8715 23.5542 20.5199 23.7069 20.2547 24.0036C19.8838 24.4182 19.7936 24.9126 19.9938 25.4332C20.2043 25.9808 20.6262 26.2882 21.1817 26.2988C21.6274 26.3074 22.1035 26.3114 22.6805 26.3114C23.0792 26.3114 23.478 26.3095 23.8767 26.3076C24.1862 26.3062 24.4958 26.3047 24.8051 26.3041C24.875 26.3041 24.9418 26.2886 25.0063 26.2736L25.0206 26.2704C25.5389 26.1511 25.8871 25.797 26.085 25.188L26.0886 25.177V25.1654V5.59205V5.57099L26.0774 5.55313ZM25.0247 25.1085C24.9678 25.1991 24.872 25.2631 24.7617 25.284C24.7097 25.294 24.6543 25.2947 24.5975 25.2947H24.5784H24.5591H24.5482C24.2579 25.2953 23.9678 25.2954 23.6774 25.2954L23.3285 25.2953H22.9796L22.6178 25.2954H22.2562C21.9744 25.2954 21.6927 25.2953 21.411 25.2945C21.3379 25.2943 21.265 25.2941 21.2005 25.2797C21.0935 25.2555 21.0066 25.1958 20.9559 25.1116C20.9071 25.0306 20.8946 24.9312 20.9208 24.8316C20.9608 24.6793 21.0982 24.577 21.2628 24.577C21.3057 24.577 21.3489 24.584 21.3909 24.5981C21.5775 24.6598 21.6918 24.685 21.7853 24.685C22.0187 24.685 22.1274 24.5289 22.2693 24.2006C22.4113 23.8723 22.6523 23.7053 22.986 23.7041C23.3289 23.7041 23.5742 23.8759 23.7184 24.2145C23.8517 24.527 23.9623 24.6856 24.198 24.6856C24.2914 24.6856 24.4023 24.6616 24.5809 24.6028C24.623 24.5889 24.666 24.582 24.7089 24.582C24.8808 24.582 25.0246 24.6908 25.0667 24.8529C25.0892 24.9387 25.0743 25.0296 25.0247 25.1085Z" fill="white"/>
<path d="M3.33798 16.3241C3.0447 15.9227 2.63605 15.6925 2.21682 15.6925C1.9526 15.6925 1.70281 15.7864 1.4943 15.9641C1.25972 16.164 1.04842 16.4297 0.883014 16.7325C0.426449 17.5692 0.273266 18.5074 0.155588 19.3966C0.112578 19.7209 0.0789007 20.0514 0.0463782 20.3711C0.0313679 20.5186 0.0163574 20.6661 0.000384853 20.8135L0 20.8173V20.8213V21.7413V21.7507L0.0023093 21.7598C0.122681 22.2217 0.288469 22.7436 0.734738 23.0914C0.944884 23.2552 1.17572 23.3877 1.42012 23.5279C1.5198 23.5852 1.62247 23.6441 1.72629 23.7067V23.8503C1.72629 24.4287 1.72629 25.0076 1.72648 25.5861C1.72648 25.6032 1.72629 25.6204 1.726 25.6376C1.72533 25.6895 1.72465 25.7433 1.72995 25.7973C1.75958 26.0979 1.96665 26.3078 2.23347 26.3078C2.52521 26.3062 2.7289 26.0815 2.73189 25.7611C2.73853 25.0399 2.74074 24.4337 2.72996 23.8192C2.72737 23.6672 2.76123 23.6216 2.91124 23.5759C3.8058 23.3036 4.4246 22.4931 4.45096 21.5588C4.48031 20.523 4.36985 19.441 4.11332 18.2508C3.98266 17.6442 3.78839 16.9408 3.33798 16.3241ZM3.2152 22.1727C2.97465 22.4906 2.6169 22.6731 2.23356 22.6731C2.12022 22.6731 2.00696 22.6568 1.89689 22.6245C1.37239 22.4714 1.02032 22.0263 1.0209 21.517C1.02215 20.3104 1.10499 18.7353 1.73918 17.2526C1.79836 17.1144 1.88265 16.9808 1.98291 16.8665C2.06951 16.7676 2.16111 16.7154 2.24771 16.7154C2.35711 16.7154 2.43793 16.8011 2.48633 16.873C2.68031 17.1609 2.8335 17.4668 2.92952 17.7577C3.24041 18.6994 3.40033 19.7304 3.44796 21.1006C3.475 21.4635 3.46518 21.8422 3.2152 22.1727Z" fill="white"/>
<path d="M5.82999 5.26579C5.71876 5.23523 5.60089 5.23135 5.51054 5.23135C4.99114 5.23076 4.47174 5.23067 3.95225 5.23067H3.73402H3.51579C2.55917 5.23067 1.62391 5.23038 0.698078 5.22717H0.691824C0.470517 5.22717 0.193114 5.26424 0.0112578 5.55294L0 5.5708V5.59195V14.5865V14.6073L0.0108728 14.6249C0.109691 14.7851 0.253348 14.9689 0.488607 14.9689C0.539892 14.9689 0.593776 14.9598 0.649006 14.9422C0.908512 14.8587 1.0259 14.6546 1.00781 14.3182C1.00541 14.2741 1.00608 14.23 1.00675 14.1832C1.00704 14.1614 1.00733 14.1396 1.00733 14.1178V6.50521V6.2497H1.23345H2.0035H2.77365C3.67023 6.2497 4.56691 6.2496 5.46358 6.24873H5.47147C5.58155 6.24853 5.69538 6.24834 5.80613 6.22408C6.04129 6.17226 6.17937 6.00098 6.18485 5.7542C6.19033 5.50393 6.06429 5.33052 5.82999 5.26579Z" fill="white"/>
<path d="M9.34866 18.3132H9.33076C9.26302 18.3132 9.19663 18.314 9.12937 18.3232C8.83205 18.3647 8.65616 18.554 8.65847 18.8299C8.66088 19.1072 8.84591 19.2967 9.1414 19.3242C9.22482 19.332 9.30777 19.333 9.37791 19.333L9.4544 19.3327L9.52994 19.3325H9.55255C9.67003 19.3327 9.78742 19.3328 9.90626 19.3328L10.172 19.3327L10.382 19.3326V19.5693V22.915L10.3819 22.9658C10.3817 23.0089 10.3815 23.052 10.3824 23.0951C10.3895 23.4574 10.5855 23.6921 10.8816 23.693C11.1839 23.693 11.387 23.4531 11.3885 23.0961C11.3915 22.4114 11.3909 21.7153 11.3906 21.0421C11.3904 20.7818 11.3902 20.5215 11.3902 20.2611V19.6148V19.3555H14.6986V19.9036C14.6986 20.9297 14.6985 21.9427 14.6992 22.9555L14.699 22.9972C14.6986 23.0792 14.6981 23.1639 14.7127 23.2478C14.7571 23.5052 14.9637 23.6921 15.204 23.6921C15.2101 23.6921 15.2164 23.692 15.2225 23.6917C15.4953 23.6806 15.6968 23.4671 15.7017 23.1841C15.7087 22.7922 15.7079 22.3939 15.7072 22.0089C15.7069 21.8726 15.7065 21.7361 15.7066 21.5996C15.7069 21.0276 15.7069 20.4557 15.7068 19.8659V19.3326H15.7558L15.8486 19.3327L15.9414 19.3326H15.9754C16.0601 19.3326 16.1448 19.3331 16.2296 19.3337C16.3146 19.3342 16.3997 19.3348 16.4846 19.3348C16.65 19.3348 16.7838 19.3327 16.906 19.3281C17.2195 19.3165 17.4204 19.1314 17.4303 18.8448C17.4402 18.5526 17.2445 18.3505 16.9196 18.3172C16.8808 18.3133 16.8436 18.3127 16.8126 18.3127L16.7732 18.313L16.7351 18.3132L13.686 18.3131C12.2462 18.3131 10.8062 18.3132 9.36646 18.3134H9.34866V18.3132Z" fill="white"/>
<path d="M18.6138 24.425C18.5887 24.4242 18.5638 24.4239 18.539 24.4239L18.4859 24.4242L18.4339 24.4245H6.78838C6.76904 24.4245 6.7498 24.4243 6.73046 24.4241C6.71064 24.4238 6.69072 24.4236 6.6709 24.4236C6.62452 24.4236 6.58873 24.4248 6.55486 24.4275C6.26042 24.4506 6.08357 24.6189 6.06952 24.8892C6.05259 25.2162 6.05413 25.5446 6.07395 25.8651C6.08992 26.1229 6.26841 26.2873 6.55159 26.3047C6.56073 26.3052 6.56977 26.3055 6.57882 26.3055C6.81013 26.3055 7.00546 26.1251 7.04318 25.8763C7.05915 25.7711 7.06396 25.663 7.06916 25.5485C7.0707 25.5139 7.07233 25.478 7.07426 25.441H7.32125H18.3846C18.4071 25.441 18.4296 25.4413 18.4521 25.4415C18.4752 25.4417 18.4982 25.442 18.5213 25.442C18.5529 25.442 18.5844 25.4415 18.6159 25.44C18.9544 25.4225 19.1674 25.2164 19.1589 24.9149C19.1505 24.6201 18.9467 24.4372 18.6138 24.425Z" fill="white"/>
<path d="M20.761 21.3806C20.7681 21.7506 20.954 21.9422 21.3135 21.95C21.5814 21.9556 21.8526 21.9585 22.1191 21.9585C22.3917 21.9585 22.6672 21.9555 22.9381 21.9496C23.2993 21.9416 23.4922 21.7444 23.4956 21.3788C23.503 20.5842 23.5031 19.7731 23.496 18.899C23.4927 18.5199 23.3004 18.3239 22.9243 18.3164C22.6592 18.3109 22.3901 18.3082 22.1248 18.3082C21.8594 18.3082 21.5904 18.3109 21.3253 18.3164C20.9518 18.3237 20.767 18.5144 20.7604 18.8995C20.7555 19.1881 20.7567 19.4813 20.758 19.7649C20.7584 19.8856 20.7589 20.0064 20.759 20.1272C20.759 20.2519 20.7584 20.3766 20.758 20.5013C20.7567 20.7896 20.7555 21.0875 20.761 21.3806ZM21.7893 20.9173V19.3511H22.476V20.9173H21.7893Z" fill="white"/>
<path d="M9.51796 16.1163C9.51998 16.5309 9.69934 16.7092 10.1176 16.7123C10.3695 16.7143 10.6214 16.7152 10.8733 16.7152C11.1284 16.7152 11.3835 16.7142 11.6386 16.7125C12.0647 16.7097 12.2483 16.5263 12.2524 16.0994C12.255 15.8217 12.2545 15.5397 12.2538 15.267C12.2535 15.1438 12.2532 15.0208 12.2532 14.8978L12.2537 14.5672C12.2542 14.2902 12.2547 14.0038 12.2528 13.7219C12.2499 13.2768 12.0648 13.0859 11.6338 13.0836C11.3729 13.0822 11.112 13.0813 10.8512 13.0813C10.6051 13.0813 10.3589 13.0821 10.1129 13.0838C9.70299 13.087 9.5195 13.2733 9.51767 13.6881C9.51392 14.5193 9.51392 15.3362 9.51796 16.1163ZM10.5452 15.6816V14.1109H11.231V15.6816H10.5452Z" fill="white"/>
<path d="M13.8373 16.137C13.8399 16.5143 14.033 16.7077 14.4112 16.7117C14.6631 16.7143 14.9253 16.7158 15.1902 16.7158C15.4453 16.7158 15.7123 16.7144 15.9835 16.712C16.3915 16.7085 16.5673 16.5267 16.5712 16.1041C16.5736 15.8258 16.5731 15.5433 16.5725 15.2699C16.5723 15.1474 16.572 15.0249 16.572 14.9023C16.572 14.7785 16.5724 14.6546 16.5726 14.5308C16.5735 14.2504 16.5743 13.9604 16.5708 13.6749C16.566 13.2751 16.381 13.0873 15.9887 13.084C15.7235 13.0816 15.4577 13.0804 15.1988 13.0804C14.9364 13.0804 14.6733 13.0817 14.4166 13.0841C14.0404 13.0879 13.8402 13.2862 13.8374 13.6575C13.8316 14.4628 13.8315 15.2971 13.8373 16.137ZM14.8585 15.6764V14.1128H15.5423V15.6764H14.8585Z" fill="white"/>
<path d="M5.32904 8.46153C5.32365 8.04066 5.14728 7.8591 4.73911 7.85444C4.48971 7.85143 4.23261 7.84998 3.97493 7.84998C3.71995 7.84998 3.45659 7.85143 3.19218 7.85434C2.78517 7.85871 2.59446 8.05037 2.59186 8.45716C2.58647 9.31675 2.58657 10.111 2.59215 10.8855C2.59504 11.2858 2.79402 11.4823 3.20045 11.4861C3.44764 11.4883 3.7009 11.4895 3.95309 11.4895C4.20528 11.4895 4.46392 11.4883 4.7217 11.4861C5.13699 11.4824 5.32433 11.2909 5.32933 10.865C5.3325 10.5853 5.33173 10.3011 5.33096 10.0262C5.33058 9.90521 5.33029 9.7843 5.33029 9.66339C5.33029 9.54179 5.33068 9.4201 5.33096 9.29851C5.33173 9.02408 5.3325 8.74062 5.32904 8.46153ZM4.30535 8.88511V10.456H3.61988V8.88511H4.30535Z" fill="white"/>
<path d="M9.51606 9.27869C9.51635 9.39863 9.51673 9.51867 9.51673 9.63861C9.51673 9.75661 9.51644 9.87471 9.51616 9.99281C9.51558 10.2789 9.51491 10.5746 9.51731 10.8656C9.52106 11.291 9.7084 11.4823 10.125 11.486C10.3872 11.4883 10.6469 11.4895 10.8971 11.4895C11.1507 11.4895 11.4027 11.4883 11.6463 11.4859C12.0517 11.482 12.2498 11.2852 12.252 10.8842C12.2562 10.1143 12.2563 9.32022 12.2523 8.45636C12.2504 8.05732 12.0626 7.86062 11.6782 7.85499C11.4153 7.85121 11.1497 7.84937 10.8889 7.84937C10.6194 7.84937 10.3474 7.8514 10.0802 7.85538C9.70176 7.8612 9.52308 8.04597 9.51808 8.43685C9.51442 8.71779 9.51529 9.00289 9.51606 9.27869ZM10.5467 10.4621V8.89072H11.2302V10.4621H10.5467Z" fill="white"/>
<path d="M13.837 10.8977C13.8393 11.2761 14.0355 11.4791 14.4045 11.4848C14.6617 11.4889 14.9274 11.4909 15.1942 11.4909C15.4568 11.4909 15.7287 11.4889 16.0026 11.4849C16.3742 11.4797 16.5652 11.2842 16.5703 10.904C16.5742 10.622 16.5733 10.3357 16.5725 10.0587C16.5721 9.93129 16.5717 9.80397 16.5718 9.67666C16.5718 9.55196 16.5721 9.42726 16.5725 9.30266C16.5731 9.02318 16.5739 8.73409 16.5708 8.44957C16.5664 8.04364 16.3889 7.86024 15.9952 7.855C15.7403 7.8516 15.4776 7.84985 15.2147 7.84985V7.88624C15.2147 7.88624 15.2147 7.88624 15.2146 7.88624V7.84985H15.2144C14.9563 7.84985 14.6899 7.8516 14.4227 7.8548C14.0306 7.85985 13.8389 8.05257 13.8366 8.44404C13.832 9.27898 13.8321 10.1045 13.837 10.8977ZM14.8608 10.4582V8.88868H15.5404V10.4582H14.8608Z" fill="white"/>
<path d="M20.7599 10.8784C20.7655 11.2887 20.9544 11.4817 21.3548 11.4858C21.6191 11.4885 21.8816 11.4899 22.1348 11.4899C22.3941 11.4899 22.6521 11.4885 22.9017 11.4857C23.2931 11.4813 23.4931 11.2835 23.4963 10.8979C23.5028 10.1145 23.5029 9.31173 23.4966 8.44399C23.4938 8.05233 23.3016 7.8597 22.909 7.85476C22.6637 7.85165 22.4056 7.8501 22.1418 7.8501C21.8917 7.8501 21.6366 7.85146 21.362 7.85417C20.9388 7.85844 20.7643 8.03826 20.7595 8.47485C20.7565 8.74763 20.7573 9.02468 20.7578 9.29262C20.7582 9.41207 20.7585 9.53153 20.7585 9.65089C20.7586 9.77996 20.7581 9.90892 20.7578 10.038C20.757 10.3134 20.7561 10.5981 20.7599 10.8784ZM21.7894 10.4613V8.89116H22.4725V10.4613H21.7894Z" fill="white"/>
<path d="M20.7606 16.1364C20.7675 16.5248 20.9481 16.7076 21.329 16.7116C21.5939 16.7145 21.8627 16.7161 22.1278 16.7161C22.3929 16.7161 22.6618 16.7145 22.9266 16.7116C23.3014 16.7073 23.493 16.512 23.4962 16.1312C23.5026 15.3327 23.5027 14.5069 23.4964 13.677C23.4935 13.2802 23.2931 13.0862 22.8835 13.0836C22.63 13.0821 22.3766 13.0813 22.1231 13.0813C21.8697 13.0813 21.616 13.0821 21.3625 13.0838C20.9522 13.0863 20.7665 13.2705 20.7602 13.681C20.7558 13.9646 20.7569 14.2526 20.758 14.531C20.7585 14.6483 20.7589 14.7656 20.759 14.8831C20.759 15.0087 20.7585 15.1345 20.7579 15.2603C20.7567 15.5473 20.7554 15.8441 20.7606 16.1364ZM21.7861 15.6732V14.1133H22.4748V15.6732H21.7861Z" fill="white"/>
<path d="M9.51789 5.658C9.5228 6.05955 9.70234 6.24122 10.1002 6.24714C10.3668 6.25102 10.6322 6.25306 10.8888 6.25306C11.1536 6.25306 11.4174 6.25102 11.6728 6.24684C12.0604 6.24063 12.25 6.04519 12.2522 5.64956C12.2563 4.86245 12.2563 4.04556 12.2522 3.22158C12.2502 2.8175 12.0538 2.61876 11.6519 2.61391C11.3886 2.61081 11.1264 2.60925 10.8725 2.60925C10.6136 2.60925 10.3553 2.6109 10.1047 2.61411C9.71504 2.61925 9.52318 2.81197 9.51808 3.20334C9.51442 3.4901 9.51529 3.78141 9.51606 4.06303C9.51635 4.18559 9.51673 4.30815 9.51673 4.43081C9.51673 4.55464 9.51644 4.67846 9.51606 4.80229C9.51529 5.08254 9.51452 5.3725 9.51789 5.658ZM10.5414 5.21025V3.64546H11.2256V5.21025H10.5414Z" fill="white"/>
<path d="M16.5706 3.20538C16.5659 2.81275 16.3747 2.61935 15.986 2.6143C15.7409 2.611 15.4845 2.60925 15.2239 2.60925V2.64564L15.2238 2.60925H15.2237C14.9733 2.60925 14.7092 2.61081 14.4389 2.61391C14.0356 2.61828 13.8385 2.81644 13.8365 3.21964C13.8325 4.02508 13.8325 4.84188 13.8365 5.64752C13.8385 6.04432 14.0273 6.24034 14.4138 6.24684C14.6667 6.25102 14.929 6.25315 15.1935 6.25315C15.4499 6.25315 15.7168 6.25111 15.9867 6.24714C16.3927 6.24131 16.5675 6.058 16.5712 5.63422C16.5736 5.3561 16.5731 5.07352 16.5726 4.80015C16.5723 4.67759 16.572 4.55512 16.572 4.43266C16.572 4.31068 16.5724 4.1887 16.5726 4.06672C16.5733 3.78442 16.5742 3.49262 16.5706 3.20538ZM15.5421 3.64546V5.21064H14.8582V3.64546H15.5421Z" fill="white"/>
<path d="M4.82418 13.0883C4.56256 13.083 4.29468 13.0804 4.00525 13.0804C3.72516 13.0804 3.42909 13.0829 3.09982 13.0879C2.82328 13.0923 2.632 13.2634 2.61237 13.5237C2.58639 13.866 2.58629 14.2037 2.61179 14.5274C2.6318 14.7815 2.8356 14.9659 3.09626 14.9659C3.10607 14.9659 3.11589 14.9656 3.1258 14.9651C3.3855 14.9508 3.57351 14.7567 3.59372 14.4821C3.60113 14.3821 3.5994 14.284 3.59747 14.1802C3.59709 14.1575 3.5967 14.1346 3.59641 14.1115H4.32037V14.4184C4.32047 14.5896 4.31989 14.7608 4.31932 14.932C4.31797 15.3332 4.31662 15.7481 4.32442 16.1564C4.33086 16.4914 4.52773 16.7079 4.82582 16.7079C4.83159 16.7079 4.83737 16.7078 4.84324 16.7077C5.13902 16.6994 5.32443 16.4877 5.32713 16.1552C5.33357 15.3305 5.33367 14.4881 5.32742 13.6512C5.32482 13.3 5.14133 13.0948 4.82418 13.0883Z" fill="white"/>
<path d="M13.0443 20.9481C12.9049 20.9481 12.7778 20.9994 12.6867 21.0924C12.5969 21.1842 12.5484 21.3106 12.5501 21.4482C12.5534 21.7204 12.7663 21.9379 13.0349 21.9435L13.0452 21.9436C13.1775 21.9436 13.3012 21.8917 13.3938 21.7976C13.4878 21.7021 13.5389 21.5738 13.5378 21.4368C13.5358 21.1579 13.3318 20.9524 13.0529 20.9482L13.0443 20.9481Z" fill="white"/>
</svg>
