<svg width="29" height="29" viewBox="0 0 29 29" fill="none" xmlns="http://www.w3.org/2000/svg">
<g clip-path="url(#clip0_120_177)">
<path d="M3.27723 21.2606C1.8757 19.5641 2.43051 17.6816 3.47722 16.7476C4.66345 15.6888 6.48028 15.688 7.6657 16.7468C8.72693 17.6945 9.25835 19.5794 7.8794 21.2453C8.13987 21.2952 8.38743 21.3468 8.63742 21.3862C8.68822 21.3943 8.75838 21.3701 8.79951 21.3363C9.68978 20.5972 10.7171 20.2654 11.9397 20.3041C11.0421 19.4216 10.5841 18.4031 10.6518 17.1961C10.7204 15.9819 11.2534 14.9956 12.2356 14.2725C13.8162 13.1082 16.0241 13.3353 17.3587 14.7894C18.6207 16.1647 18.8667 18.5327 17.1111 20.2759C17.4216 20.3033 17.7168 20.321 18.0087 20.3556C18.7336 20.4418 19.3925 20.7107 19.965 21.1568C20.1997 21.3395 20.4093 21.4305 20.6972 21.3283C20.8271 21.2824 20.9738 21.2816 21.148 21.2558C20.436 20.4128 20.1408 19.4651 20.3819 18.3902C20.5513 17.6365 20.9545 17.0222 21.5794 16.5624C22.8366 15.6381 24.5575 15.7734 25.6623 16.8716C26.6171 17.8209 27.0856 19.6318 25.7437 21.2461C26.0042 21.2969 26.2558 21.3315 26.4993 21.3959C27.9162 21.7727 28.9573 23.0642 28.9847 24.528C29.0097 25.8364 28.9944 27.1457 28.9919 28.4541C28.9919 28.7866 28.7968 28.9976 28.5137 28.9992C28.2218 29.0016 28.0299 28.7842 28.0291 28.4307C28.0259 27.2229 28.0291 26.0144 28.0275 24.8066C28.0259 23.2558 27.0058 22.2373 25.4558 22.2357C24.118 22.2349 22.7802 22.2357 21.4424 22.2357H21.0956C21.0891 22.2937 21.0779 22.3178 21.0859 22.3315C21.6109 23.1938 21.781 24.1351 21.7552 25.1351C21.7294 26.1714 21.7496 27.2093 21.7496 28.2463C21.7496 28.3172 21.7512 28.3872 21.7496 28.4581C21.7383 28.7898 21.5512 29.0008 21.2682 29.0008C20.9851 29.0008 20.7876 28.7898 20.7867 28.4597C20.7819 27.1609 20.7988 25.8622 20.7779 24.5635C20.7553 23.1214 19.7884 21.846 18.4111 21.4353C18.0692 21.3331 17.7014 21.2799 17.3442 21.2767C15.4532 21.2614 13.5621 21.2638 11.6703 21.2711C9.71075 21.2783 8.23906 22.7518 8.22857 24.7108C8.22212 25.9089 8.22777 27.107 8.22696 28.3051C8.22696 28.3856 8.2318 28.4669 8.22293 28.5467C8.1939 28.814 7.99713 28.9992 7.74634 29C7.49474 29.0008 7.26895 28.8164 7.26976 28.5507C7.27459 27.0514 7.25201 25.5498 7.33185 24.0546C7.35927 23.5352 7.65038 23.0296 7.82537 22.5191C7.85279 22.4378 7.90359 22.3645 7.96165 22.2526C7.81569 22.2454 7.70925 22.2365 7.60199 22.2365C6.23352 22.2357 4.86586 22.2333 3.49738 22.2365C2.02569 22.2397 0.987846 23.2744 0.983007 24.743C0.979782 25.9306 0.983007 27.1191 0.982201 28.3067C0.982201 28.3969 0.991072 28.4903 0.974943 28.5781C0.926559 28.8381 0.76689 28.9959 0.49997 28.9959C0.233856 28.9959 0.0314474 28.8381 0.0298346 28.5789C0.0217705 27.1295 -0.0580638 25.6722 0.0709613 24.2333C0.216921 22.6141 1.39669 21.5368 3.00789 21.2952C3.08692 21.2832 3.16595 21.2751 3.27482 21.2606H3.27723ZM17.4031 17.3966C17.4014 15.7991 16.1015 14.5028 14.5016 14.502C12.9082 14.502 11.6026 15.812 11.6098 17.4054C11.6171 19.0045 12.913 20.2984 14.5121 20.3017C16.1023 20.3041 17.4047 18.9957 17.4031 17.3966ZM7.74473 19.1044C7.74876 17.9079 6.77946 16.9239 5.59082 16.9191C4.38201 16.9143 3.39981 17.891 3.39981 19.0987C3.39981 20.2904 4.37798 21.2687 5.56985 21.2679C6.76575 21.2679 7.7415 20.2968 7.74473 19.1044ZM25.6131 19.0802C25.6074 17.8869 24.6277 16.9143 23.435 16.9191C22.2286 16.9239 21.2585 17.9111 21.2682 19.1229C21.2778 20.3113 22.2665 21.2775 23.4616 21.2671C24.6543 21.2574 25.6187 20.2767 25.6123 19.0802H25.6131Z" fill="white"/>
<path d="M2.43366 12.0736C2.43366 11.7008 2.43205 11.3289 2.43366 10.9561C2.4377 10.2024 2.8288 9.68469 3.5578 9.4689C3.89487 9.36906 4.23195 9.26922 4.57226 9.18307C4.74321 9.13959 4.83756 9.05585 4.90127 8.88354C5.0682 8.43184 5.27302 7.99382 5.43834 7.54212C5.48269 7.42134 5.48269 7.24743 5.42866 7.1339C5.26577 6.78928 5.05933 6.4656 4.88111 6.12743C4.56177 5.52113 4.65532 4.86974 5.13755 4.37859C5.68752 3.81818 6.24232 3.26261 6.80278 2.71268C7.30597 2.2183 7.94949 2.13295 8.57607 2.4671C8.91314 2.64665 9.23974 2.84634 9.58246 3.01381C9.68084 3.06212 9.83245 3.06454 9.93647 3.02509C10.4058 2.84875 10.8711 2.65873 11.3275 2.4518C11.4356 2.40269 11.5469 2.28352 11.5856 2.1716C11.7106 1.81169 11.7969 1.43809 11.9081 1.07254C12.1122 0.402631 12.6436 0.00728942 13.346 0.00326355C14.1209 -0.000762328 14.8951 -0.000762328 15.67 0.00326355C16.3708 0.00728942 16.9022 0.404241 17.1062 1.07415C17.2143 1.43003 17.3183 1.78753 17.4103 2.14745C17.4538 2.31895 17.5409 2.41074 17.7118 2.47435C18.1634 2.64182 18.6005 2.84634 19.0521 3.0114C19.1731 3.05568 19.3456 3.05327 19.4601 2.99932C19.7956 2.8407 20.1117 2.64182 20.4391 2.46629C21.0584 2.13376 21.7092 2.22072 22.2124 2.71348C22.7729 3.26261 23.3285 3.81818 23.8768 4.3802C24.3663 4.88182 24.4494 5.53321 24.1155 6.15722C23.9397 6.48492 23.743 6.80216 23.5817 7.13712C23.5301 7.2442 23.5228 7.40685 23.5639 7.51877C23.7381 7.98899 23.9301 8.45358 24.1349 8.91172C24.18 9.01237 24.2881 9.11946 24.3913 9.15408C24.7615 9.28049 25.1429 9.37309 25.5171 9.48742C26.1711 9.68872 26.5726 10.2193 26.5783 10.9013C26.5847 11.6968 26.5855 12.4923 26.5783 13.2879C26.5718 13.9521 26.1694 14.4843 25.5316 14.6824C25.1477 14.8016 24.7606 14.9087 24.3728 15.0141C24.0542 15.1011 23.8075 14.9787 23.7212 14.7025C23.6365 14.432 23.7841 14.1856 24.1018 14.0882C24.4574 13.9795 24.8147 13.878 25.1735 13.7822C25.4816 13.7001 25.6195 13.5101 25.6162 13.1904C25.609 12.4553 25.609 11.7202 25.6162 10.985C25.6195 10.6662 25.484 10.4754 25.176 10.3916C24.7107 10.2644 24.251 10.1203 23.7849 9.99629C23.5373 9.93027 23.401 9.78775 23.3091 9.54701C23.0656 8.91011 22.8051 8.27885 22.5277 7.65645C22.4229 7.42134 22.4124 7.22247 22.5406 7.00104C22.7769 6.59201 23.0043 6.17735 23.2309 5.76268C23.4131 5.43014 23.3881 5.25703 23.1172 4.98327C22.614 4.47601 22.1092 3.97036 21.602 3.46632C21.327 3.19337 21.1584 3.17082 20.823 3.35521C20.4181 3.57824 20.0109 3.79805 19.6125 4.03317C19.3714 4.17488 19.1577 4.16119 18.9029 4.04524C18.3013 3.77148 17.6885 3.51866 17.0699 3.28516C16.82 3.19095 16.6611 3.06132 16.5926 2.79964C16.4724 2.3431 16.3353 1.89059 16.2023 1.43728C16.0958 1.07495 15.9668 0.972695 15.6039 0.971084C14.8693 0.968669 14.1354 0.97511 13.4008 0.967864C13.0815 0.964643 12.8944 1.10313 12.8105 1.41152C12.6847 1.87691 12.5387 2.33747 12.4146 2.80366C12.3484 3.05246 12.2025 3.18532 11.963 3.27711C11.3267 3.52107 10.6969 3.78276 10.0744 4.05974C9.8397 4.16441 9.64052 4.17085 9.41957 4.04283C9.01072 3.80611 8.59623 3.57905 8.18254 3.35199C7.85514 3.17243 7.68579 3.19256 7.42694 3.44941C6.90519 3.96634 6.3907 4.49131 5.86654 5.00662C5.63913 5.23046 5.60849 5.46638 5.76413 5.74094C6.00282 6.16044 6.22942 6.58638 6.47134 7.00426C6.59956 7.22649 6.58424 7.42698 6.48021 7.65968C6.20442 8.28288 5.94557 8.91494 5.69881 9.55023C5.61091 9.77648 5.48833 9.92302 5.24964 9.98744C4.77466 10.1155 4.30453 10.2628 3.83036 10.3932C3.53764 10.4738 3.39329 10.6509 3.3949 10.9585C3.39974 11.7137 3.39893 12.469 3.3949 13.2242C3.39329 13.5189 3.5336 13.6953 3.81101 13.775C4.15857 13.874 4.50694 13.9722 4.85369 14.0745C5.20851 14.1792 5.36899 14.3998 5.29722 14.6776C5.2198 14.9787 4.96175 15.1019 4.60371 15.0029C4.22631 14.8982 3.8473 14.7967 3.47393 14.6808C2.83767 14.4827 2.44092 13.9481 2.43125 13.283C2.4256 12.8804 2.43044 12.4778 2.42963 12.0745L2.43366 12.0736Z" fill="white"/>
<path d="M14.4275 5.77954C16.937 5.89629 18.8273 6.92772 19.9957 9.06385C21.1481 11.1718 21.0546 13.3071 19.8377 15.3821C19.7619 15.5117 19.6248 15.6735 19.4998 15.6896C19.3369 15.7106 19.1192 15.6462 18.9942 15.5375C18.8184 15.3845 18.8515 15.1542 18.9756 14.9561C19.3426 14.3708 19.5885 13.7403 19.7272 13.0624C20.3159 10.1879 18.2354 7.23208 15.3331 6.8303C12.4187 6.4269 9.86405 8.22727 9.28989 11.113C9.03426 12.3973 9.27134 13.6115 9.91566 14.7484C9.95034 14.8096 9.98985 14.8684 10.0245 14.9296C10.1971 15.2355 10.1463 15.5189 9.89228 15.6639C9.64632 15.8048 9.38666 15.7194 9.2028 15.4376C6.83116 11.8103 9.00604 6.71193 13.2647 5.92689C13.6784 5.8504 14.1001 5.8206 14.4283 5.77954H14.4275Z" fill="white"/>
<path d="M2.43384 27.0684C2.43384 26.6151 2.43142 26.1626 2.43465 25.7092C2.43787 25.355 2.62496 25.1376 2.91688 25.1376C3.2088 25.1376 3.39669 25.355 3.3983 25.7101C3.40153 26.6159 3.40153 27.5217 3.3983 28.4283C3.39669 28.7826 3.20718 29 2.91607 29C2.62415 29 2.43787 28.7826 2.43465 28.4275C2.43061 27.9742 2.43384 27.5217 2.43384 27.0684Z" fill="white"/>
<path d="M9.67763 27.0386C9.67763 26.5958 9.67521 26.1529 9.67843 25.7101C9.68166 25.355 9.86794 25.1384 10.1599 25.1384C10.4518 25.1384 10.6405 25.355 10.6421 25.7101C10.6453 26.6159 10.6453 27.5217 10.6421 28.4284C10.6405 28.7827 10.4518 29.0009 10.1607 29.0009C9.86875 29.0009 9.68166 28.7835 9.67924 28.4292C9.67521 27.9662 9.67843 27.5032 9.67843 27.0403L9.67763 27.0386Z" fill="white"/>
<path d="M18.3706 27.0434C18.3706 26.5901 18.3666 26.1376 18.3723 25.6843C18.3763 25.3501 18.565 25.1408 18.8488 25.1383C19.1327 25.1351 19.3327 25.3461 19.3343 25.6754C19.3391 26.6013 19.3391 27.5273 19.3343 28.4541C19.3327 28.7866 19.14 28.9975 18.8577 29.0008C18.5747 29.004 18.3763 28.7922 18.3723 28.4637C18.3658 27.9911 18.3706 27.5176 18.3706 27.0442V27.0434Z" fill="white"/>
<path d="M26.5795 27.0884C26.5795 27.5417 26.5835 27.9942 26.5779 28.4476C26.5739 28.7817 26.3884 28.9935 26.1069 29.0007C25.815 29.008 25.6158 28.789 25.615 28.4395C25.6118 27.5232 25.611 26.6077 25.615 25.6914C25.6166 25.3557 25.8029 25.1455 26.0852 25.1391C26.3787 25.1318 26.5747 25.3492 26.5779 25.7003C26.5819 26.1633 26.5787 26.6263 26.5787 27.0892L26.5795 27.0884Z" fill="white"/>
</g>
<defs>
<clipPath id="clip0_120_177">
<rect width="29" height="29" fill="white"/>
</clipPath>
</defs>
</svg>
